<?xml version="1.0" encoding="UTF-8"?>
<svg xmlns="http://www.w3.org/2000/svg" xmlns:xlink="http://www.w3.org/1999/xlink" width="29px" height="29px" viewBox="0 0 48 48" version="1.1">
<g id="surface7360960">
<path style=" stroke:none;fill-rule:nonzero;fill:black;fill-opacity:1;" d="M 24 1.199219 C 11.40625 1.199219 1.199219 11.40625 1.199219 24 C 1.199219 36.59375 11.40625 46.800781 24 46.800781 C 36.59375 46.800781 46.800781 36.59375 46.800781 24 C 46.800781 11.40625 36.59375 1.199219 24 1.199219 Z M 24 5.761719 C 34.054688 5.761719 42.238281 13.945312 42.238281 24 C 42.238281 25.070312 42.132812 26.121094 41.953125 27.136719 C 41.394531 27.011719 40.566406 26.859375 39.605469 26.851562 C 38.890625 26.839844 38 26.957031 37.253906 27.0625 C 37.511719 26.269531 37.679688 25.398438 37.679688 24.5 C 37.679688 22.308594 36.609375 20.269531 34.902344 18.585938 C 35.375 16.832031 35.835938 13.820312 34.617188 12.601562 C 31.007812 12.601562 29.015625 15.175781 28.917969 15.308594 C 27.804688 15.039062 26.652344 14.878906 25.425781 14.878906 C 23.847656 14.878906 22.34375 15.164062 20.9375 15.59375 L 21.363281 15.234375 C 21.363281 15.234375 19.359375 12.457031 15.664062 12.457031 C 14.371094 13.757812 14.960938 17.054688 15.449219 18.726562 C 13.703125 20.394531 12.601562 22.359375 12.601562 24.5 C 12.601562 25.246094 12.777344 25.960938 12.957031 26.636719 C 12.324219 26.566406 10.042969 26.351562 9.109375 26.351562 C 8.28125 26.351562 6.996094 26.546875 5.972656 26.777344 C 5.832031 25.871094 5.761719 24.945312 5.761719 24 C 5.761719 13.945312 13.945312 5.761719 24 5.761719 Z M 9.109375 26.921875 C 10.007812 26.921875 12.742188 27.242188 13.097656 27.277344 C 13.144531 27.402344 13.1875 27.519531 13.242188 27.632812 C 12.261719 27.542969 10.363281 27.410156 9.109375 27.5625 C 8.273438 27.660156 7.203125 27.964844 6.257812 28.203125 C 6.1875 27.917969 6.097656 27.644531 6.046875 27.347656 C 7.042969 27.136719 8.351562 26.921875 9.109375 26.921875 Z M 39.605469 27.421875 C 40.511719 27.429688 41.339844 27.582031 41.882812 27.703125 C 41.855469 27.855469 41.777344 27.980469 41.742188 28.132812 C 41.164062 28 40.210938 27.804688 39.105469 27.777344 C 38.570312 27.765625 37.714844 27.792969 36.96875 27.847656 C 37.003906 27.777344 37.011719 27.703125 37.039062 27.632812 C 37.8125 27.527344 38.800781 27.410156 39.605469 27.421875 Z M 10.535156 28.0625 C 11.816406 28.070312 13.019531 28.160156 13.527344 28.203125 C 14.71875 30.429688 17.132812 32.078125 20.863281 32.765625 C 19.949219 33.269531 19.128906 33.984375 18.515625 34.828125 C 17.980469 34.875 17.417969 34.902344 16.875 34.902344 C 15.289062 34.902344 14.300781 33.484375 13.453125 32.265625 C 12.601562 31.042969 11.550781 30.910156 10.960938 30.839844 C 10.363281 30.769531 10.160156 31.105469 10.460938 31.339844 C 12.199219 32.675781 12.824219 34.261719 13.527344 35.683594 C 14.160156 36.96875 15.484375 37.679688 16.945312 37.679688 L 17.230469 37.679688 C 17.1875 37.929688 17.160156 38.160156 17.160156 38.390625 L 17.160156 40.886719 C 11.894531 38.757812 7.886719 34.261719 6.402344 28.703125 C 7.335938 28.472656 8.386719 28.230469 9.179688 28.132812 C 9.546875 28.089844 10.007812 28.050781 10.535156 28.0625 Z M 39.105469 28.347656 C 40.128906 28.371094 41.039062 28.570312 41.597656 28.703125 C 40.34375 33.421875 37.242188 37.351562 33.121094 39.746094 L 33.121094 38.390625 C 33.121094 36.449219 31.589844 33.957031 29.414062 32.765625 C 33.023438 32.105469 35.375 30.527344 36.609375 28.417969 C 37.476562 28.355469 38.492188 28.328125 39.105469 28.347656 Z M 25.140625 37.679688 C 25.761719 37.679688 26.28125 38.195312 26.28125 38.820312 L 26.28125 42.097656 C 25.53125 42.195312 24.773438 42.238281 24 42.238281 L 24 38.820312 C 24 38.195312 24.515625 37.679688 25.140625 37.679688 Z M 20.578125 39.960938 C 21.203125 39.960938 21.71875 40.476562 21.71875 41.101562 L 21.71875 42.097656 C 20.953125 42 20.179688 41.855469 19.441406 41.671875 L 19.441406 41.101562 C 19.441406 40.476562 19.957031 39.960938 20.578125 39.960938 Z M 29.699219 39.960938 C 30.253906 39.960938 30.734375 40.359375 30.839844 40.886719 C 30.101562 41.1875 29.34375 41.464844 28.558594 41.671875 L 28.558594 41.101562 C 28.558594 40.476562 29.078125 39.960938 29.699219 39.960938 Z M 29.699219 39.960938 "/>
</g>
</svg>
