<?xml version="1.0" encoding="UTF-8"?>
<svg xmlns="http://www.w3.org/2000/svg" xmlns:xlink="http://www.w3.org/1999/xlink" width="28px" height="28px" viewBox="0 0 50 50" version="1.1">
<g id="surface14788651">
<path style=" stroke:none;fill-rule:nonzero;fill:black;fill-opacity:1;" d="M 45.800781 -2.300781 L 4.199219 -2.300781 C 0.613281 -2.300781 -2.300781 0.613281 -2.300781 4.199219 L -2.300781 45.800781 C -2.300781 49.386719 0.613281 52.300781 4.199219 52.300781 L 45.800781 52.300781 C 49.386719 52.300781 52.300781 49.386719 52.300781 45.800781 L 52.300781 4.199219 C 52.300781 0.613281 49.386719 -2.300781 45.800781 -2.300781 Z M 14.601562 18.5 L 14.601562 43.199219 L 6.800781 43.199219 L 6.800781 18.5 Z M 6.800781 11.3125 C 6.800781 9.492188 8.359375 8.101562 10.699219 8.101562 C 13.039062 8.101562 14.507812 9.492188 14.601562 11.3125 C 14.601562 13.132812 13.144531 14.601562 10.699219 14.601562 C 8.359375 14.601562 6.800781 13.132812 6.800781 11.3125 Z M 43.199219 43.199219 L 35.398438 43.199219 C 35.398438 43.199219 35.398438 31.160156 35.398438 30.199219 C 35.398438 27.601562 34.101562 25 30.851562 24.949219 L 30.746094 24.949219 C 27.601562 24.949219 26.300781 27.625 26.300781 30.199219 C 26.300781 31.382812 26.300781 43.199219 26.300781 43.199219 L 18.5 43.199219 L 18.5 18.5 L 26.300781 18.5 L 26.300781 21.828125 C 26.300781 21.828125 28.808594 18.5 33.851562 18.5 C 39.015625 18.5 43.199219 22.050781 43.199219 29.238281 Z M 43.199219 43.199219 "/>
</g>
</svg>
